<?xml version="1.0" standalone="no"?>
<!DOCTYPE svg PUBLIC "-//W3C//DTD SVG 20010904//EN"
 "http://www.w3.org/TR/2001/REC-SVG-20010904/DTD/svg10.dtd">
<svg version="1.0" xmlns="http://www.w3.org/2000/svg"
 width="750.000000pt" height="750.000000pt" viewBox="0 0 750.000000 750.000000"
 preserveAspectRatio="xMidYMid meet">

<g transform="translate(0.000000,750.000000) scale(0.100000,-0.100000)"
fill="#000000" stroke="none">
<path d="M3880 4333 c0 -5 -11 -96 -25 -203 -14 -107 -25 -196 -25 -198 0 -1
-19 10 -42 25 -36 24 -51 28 -117 28 -59 0 -86 -5 -123 -23 -101 -50 -193
-162 -240 -294 -19 -54 -22 -83 -22 -198 0 -116 3 -141 21 -180 40 -89 123
-137 218 -127 69 7 125 36 191 101 l54 52 0 -57 c0 -75 11 -83 116 -88 80 -3
83 -2 88 20 3 13 34 267 71 564 36 297 68 550 70 563 5 22 5 22 -115 22 -66 0
-120 -3 -120 -7z m-85 -544 c13 -12 13 -29 4 -104 -29 -247 -184 -423 -265
-300 -13 20 -16 44 -12 128 3 92 7 110 36 170 19 37 49 80 70 97 34 29 42 31
95 28 32 -3 64 -11 72 -19z"/>
<path d="M5122 4320 c-94 -57 -94 -181 0 -241 64 -40 157 -7 193 67 55 116
-83 241 -193 174z"/>
<path d="M886 4278 c-3 -13 -33 -250 -66 -528 -33 -278 -63 -522 -66 -542 l-6
-38 125 0 c111 0 126 2 131 18 2 9 15 106 27 216 l23 198 45 -6 c25 -3 53 -14
63 -24 9 -9 44 -93 78 -187 34 -93 70 -179 81 -190 17 -18 35 -20 154 -23 74
-2 135 -1 135 1 0 13 -155 378 -175 413 -14 23 -31 44 -40 48 -22 8 -18 23 8
30 32 8 118 81 150 129 72 107 85 257 31 357 -33 60 -71 93 -146 123 -48 19
-75 22 -300 25 l-247 4 -5 -24z m413 -181 c46 -23 66 -63 66 -131 0 -53 -5
-71 -30 -112 -38 -60 -89 -83 -187 -83 -81 -1 -76 -19 -48 193 11 81 20 151
20 153 0 10 154 -8 179 -20z"/>
<path d="M2040 3976 c-74 -21 -120 -47 -180 -103 -98 -90 -153 -223 -153 -368
0 -211 127 -345 328 -345 115 0 225 42 314 120 l44 38 -38 46 c-47 57 -68 59
-161 10 -62 -33 -75 -36 -127 -31 -37 3 -66 12 -79 24 -25 22 -48 73 -48 106
0 22 6 25 104 41 245 40 351 111 364 246 15 157 -175 269 -368 216z m137 -168
c7 -6 13 -25 13 -43 0 -32 -16 -52 -57 -74 -26 -13 -164 -43 -170 -37 -3 3 1
21 7 42 15 44 88 120 121 127 30 6 70 -1 86 -15z"/>
<path d="M2860 3977 c-144 -34 -283 -145 -350 -278 -49 -99 -64 -171 -58 -280
7 -107 40 -177 106 -224 39 -27 52 -30 115 -30 86 1 117 15 193 89 l54 52 0
-46 c0 -74 14 -84 114 -89 83 -3 85 -2 90 20 3 13 23 177 46 364 23 187 43
354 46 371 5 30 4 32 -41 43 -72 18 -252 23 -315 8z m106 -174 c-3 -16 -8 -55
-12 -88 -18 -175 -84 -326 -155 -355 -92 -39 -139 99 -89 262 37 121 120 189
253 207 5 1 6 -11 3 -26z"/>
<path d="M5687 3976 c-154 -45 -273 -184 -313 -366 -67 -311 141 -519 430
-430 51 16 79 33 126 76 l60 56 -32 40 c-49 62 -68 67 -124 30 -162 -108 -276
14 -218 233 41 159 139 222 258 166 22 -11 47 -17 55 -14 9 3 37 28 63 56 l47
52 -27 28 c-67 70 -217 104 -325 73z"/>
<path d="M6379 3976 c-82 -24 -140 -59 -199 -122 -175 -188 -183 -494 -17
-626 140 -110 379 -84 530 58 l39 36 -29 31 c-62 70 -75 72 -169 22 -128 -68
-235 -34 -251 82 l-5 39 107 18 c196 32 296 82 340 169 41 83 30 157 -34 225
-64 68 -205 99 -312 68z m139 -173 c25 -34 9 -84 -36 -107 -31 -16 -172 -49
-179 -42 -11 10 20 75 53 114 51 60 129 77 162 35z"/>
<path d="M4160 3968 c0 -7 41 -179 90 -383 49 -203 92 -380 95 -392 5 -22 10
-23 108 -23 l102 0 195 403 196 402 -86 3 c-119 4 -147 -2 -166 -39 -8 -17
-59 -145 -113 -286 l-98 -255 -7 74 c-4 40 -21 163 -37 273 -37 246 -29 235
-175 235 -77 0 -104 -3 -104 -12z"/>
<path d="M5046 3958 c-3 -13 -23 -178 -46 -368 -22 -190 -43 -362 -46 -382
l-6 -38 121 0 c67 0 121 2 121 4 0 2 20 175 45 384 25 209 45 390 45 401 0 20
-5 21 -115 21 -111 0 -115 -1 -119 -22z"/>
</g>
</svg>
